# xmcd
#
# Track frame offsets:
#	150
#	20452
#	36375
#	55692
#	72760
#	92730
#	115155
#	136860
#	155850
#	173622
#	189500
#	204677
#	217160
#	234680
#	253280
#	273330
#	289385
#	308200
#
# Disc length: 4372 seconds
#
# Revision: 1
# Processed by: cddbd v1.5PL3 Copyright (c) Steve Scherf et al.
# Submitted via: CDex 1.50Beta5
#
DISCID=15111212
DTITLE=Pool Bit Boys - best 18/hp
DYEAR=1900
DGENRE=Pop
TTITLE0=SQUALL
TTITLE1=Venus Accident
TTITLE2=CROSS In The Night
TTITLE3=Scarletの憂鬱
TTITLE4=fade in the rain
TTITLE5=Fantastic sign !
TTITLE6=Wingbeat
TTITLE7=lunatic treasure
TTITLE8=Hallelujah
TTITLE9=EARTH STRIKER
TTITLE10=Nippon Ichi - Tokyo Japan is the Place to be
TTITLE11=What's life?
TTITLE12=TECHNO DRIVE
TTITLE13=SUNSHINE
TTITLE14=Sound Track
TTITLE15=Off shore
TTITLE16=蒼の軌跡
TTITLE17=SPIRAL
EXTD=
EXTT0=
EXTT1=
EXTT2=
EXTT3=
EXTT4=
EXTT5=
EXTT6=
EXTT7=
EXTT8=
EXTT9=
EXTT10=
EXTT11=
EXTT12=
EXTT13=
EXTT14=
EXTT15=
EXTT16=
EXTT17=
PLAYORDER=
